<?xml version="1.0" encoding="UTF-8" standalone="no"?> <svg id="flat" xmlns="http://www.w3.org/2000/svg" viewBox="0 0 512 512"><path d="M446.2,125.877l1.286.8A69.122,69.122,0,0,1,478.63,198.85h0a69.121,69.121,0,0,1-36.868,48.269L408,264l20.378-25.472A53.041,53.041,0,0,0,440,205.4h0a53.038,53.038,0,0,0-24.927-44.976l-28-17.472Z" style="fill:#af1e4b"/><polygon points="414.265 86.273 461.317 102.047 475.513 60.728 445.249 50.33 414.265 86.273" style="fill:#feac4f"/><path d="M177.09,68.465h0a53.656,53.656,0,0,0,30.776,27.191l121.952,41.9a136.906,136.906,0,0,0,48.294,7.376l3.525-.1a136.9,136.9,0,0,0,73.08-23.578h0l7.8-22.7L264.5,30.526a54.625,54.625,0,0,0-41.73,2.581h0L211.694,29.3a28.285,28.285,0,0,0-35.94,17.559h0A28.28,28.28,0,0,0,177.09,68.465Z" style="fill:#ffd199"/><path d="M401.637,124.833l-3.525.1a136.929,136.929,0,0,1-48.294-7.376l-121.952-41.9A53.656,53.656,0,0,1,197.09,48.466h0a28.278,28.278,0,0,1-1.9-19.741,28.255,28.255,0,0,0-19.438,18.135h0a28.28,28.28,0,0,0,1.336,21.606h0a53.656,53.656,0,0,0,30.776,27.191l121.952,41.9a136.929,136.929,0,0,0,48.294,7.376l3.525-.1a136.905,136.905,0,0,0,73.08-23.578l3.6-10.463A136.908,136.908,0,0,1,401.637,124.833Z" style="fill:#feac4f"/><circle cx="216" cy="296" r="192" style="fill:#2993ce"/><path d="M281.738,115.553A160.014,160.014,0,0,1,24.51,282.014q-.5,6.928-.51,13.986c0,106.039,85.961,192,192,192s192-85.961,192-192A192.073,192.073,0,0,0,281.738,115.553Z" style="fill:#045f9c"/><path d="M334.821,145.179A191.173,191.173,0,0,1,376,264c0,106.039-85.961,192-192,192A191.175,191.175,0,0,1,65.179,414.821,191.654,191.654,0,0,0,216,488c106.039,0,192-85.961,192-192A191.654,191.654,0,0,0,334.821,145.179Z" style="fill:#0a4566"/><path d="M72,236v16a20,20,0,0,0,20,20h64a20,20,0,0,0,0-40h0a20,20,0,0,1-20-20h0a20,20,0,0,1,20-20h45.448a23.547,23.547,0,0,0,21.06-13.016l1.9-3.805A23.546,23.546,0,0,0,220,148a23.546,23.546,0,0,1-4.411-27.179l8.323-16.646c-2.625-.106-5.26-.175-7.912-.175A192.025,192.025,0,0,0,41.42,216H52A20,20,0,0,1,72,236Z" style="fill:#96d6e4"/><path d="M160,430.32v-1.263a26.113,26.113,0,0,0-10.446-20.891,26.115,26.115,0,0,1-4.723-37.2l3.845-4.806a20.253,20.253,0,0,0-1.494-26.973h0a19.878,19.878,0,0,0-24.592-2.8l-35.28,22.05a18.593,18.593,0,0,1-25.325-5.453h0a18.6,18.6,0,0,1-1.16-18.629h0A28.306,28.306,0,0,0,51.21,298.14L24.631,280.421Q24.013,288.13,24,296a191.928,191.928,0,0,0,97.75,167.3l21.834-8.734A26.113,26.113,0,0,0,160,430.32Z" style="fill:#4895aa"/><path d="M385.941,280A33.941,33.941,0,0,0,352,313.941h0a33.941,33.941,0,0,1-9.941,24l-4.118,4.118a33.941,33.941,0,0,1-24,9.941H268a20,20,0,0,0-20,20h0a20,20,0,0,0,20,20h20a16,16,0,0,1,16,16h0a16,16,0,0,1-16,16H252.492A28.492,28.492,0,0,0,224,452.492h0a28.5,28.5,0,0,0,.851,6.911l6.985,27.943C330.465,479.292,408,396.705,408,296c0-5.389-.233-10.723-.669-16Z" style="fill:#96d6e4"/><path d="M407.331,280h-21.39a33.889,33.889,0,0,0-10.7,1.732,191.7,191.7,0,0,1-73.659,134.7,15.994,15.994,0,0,1-9.729,7.082A190.98,190.98,0,0,1,224,452.458v.034a28.5,28.5,0,0,0,.851,6.911l6.985,27.943C330.465,479.292,408,396.705,408,296,408,290.611,407.767,285.277,407.331,280Z" style="fill:#4895aa"/><rect x="360.104" y="372.257" width="45.255" height="90.51" transform="translate(-178.79 491.63) rotate(-55.008)" style="fill:#f6e597"/><rect x="323.754" y="364.857" width="16" height="33.942" transform="translate(-171.301 434.637) rotate(-55.007)" style="fill:#efd66a"/><rect x="425.709" y="436.225" width="16" height="33.941" transform="translate(-186.279 548.614) rotate(-55.008)" style="fill:#efd66a"/><rect x="424.984" y="454.928" width="45.255" height="16" transform="translate(-188.325 564.135) rotate(-55.006)" style="fill:#efd66a"/><rect x="374.551" y="435.464" width="90.51" height="16" transform="translate(-184.24 533.054) rotate(-55.006)" style="fill:#efd66a"/><rect x="65.459" y="62.696" width="45.255" height="90.51" transform="translate(-26.628 28.873) rotate(-16.206)" style="fill:#f6e597"/><rect x="97.453" y="150.733" width="16" height="33.941" transform="translate(-42.614 36.094) rotate(-16.206)" style="fill:#efd66a"/><rect x="62.721" y="31.227" width="16" height="33.941" transform="translate(-10.641 21.651) rotate(-16.205)" style="fill:#efd66a"/><rect x="43.357" y="23.902" width="45.255" height="16" transform="matrix(0.96, -0.279, 0.279, 0.96, -6.282, 19.684)" style="fill:#efd66a"/><rect x="30.202" y="56.494" width="90.51" height="16.001" transform="translate(-14.999 23.617) rotate(-16.203)" style="fill:#efd66a"/><rect x="247.405" y="53.235" width="15.999" height="16" transform="translate(114.499 282.881) rotate(-71.038)" style="fill:#96d6e4"/><rect x="277.668" y="63.633" width="16.001" height="16" transform="translate(125.109 318.531) rotate(-71.041)" style="fill:#96d6e4"/><rect x="307.932" y="74.031" width="15.999" height="16" transform="translate(135.691 354.162) rotate(-71.038)" style="fill:#96d6e4"/><polygon points="304.837 188.186 342.666 201.183 335.797 122.692 260.138 96.698 304.837 188.186" style="fill:#ffd199"/></svg>